<?xml version="1.0" encoding="UTF-8"?>
<svg viewBox="0 0 38 38" xmlns="http://www.w3.org/2000/svg">
<path d="m0 19c0-10.493 8.5066-19 19-19 10.493 0 19 8.5066 19 19 0 10.493-8.5066 19-19 19-10.493 0-19-8.5066-19-19z" fill="#3DDC84"/>
<path d="M26.3752 11H11.6248C10.1751 11 9 12.212 9 13.7061V21.203C9 21.3421 9.01022 21.4788 9.03025 21.6124C9.00974 21.8121 9 22.014 9 22.2178C9 26.5151 13.4769 30 18.9999 30C24.5229 30 29 26.5151 29 22.2178C29 22.0139 28.9893 21.8121 28.9697 21.6124C28.9893 21.4789 29 21.3421 29 21.203V13.7062C29 12.2116 27.8236 11 26.3752 11Z" fill="#fff"/>
</svg>
